<?xml version="1.0" encoding="UTF-8" standalone="no"?>
<!-- Created by diasvg.py -->
<svg width="19.950cm" height="8.800cm" viewBox="3.250 4.600 23.200 13.400"
 xmlns:xlink="http://www.w3.org/1999/xlink">
<rect x="3.300" y="4.650" width="5.750" height="1.400" fill="#FFFFFF" stroke="none" stroke-width="0"/>
<rect x="3.300" y="4.650" width="5.750" height="1.400" fill="none" stroke="#000000" stroke-width="0.100" />
<text x="6.175" y="5.650"  fill="#000000" text-anchor="middle" font-size="1.00" font-family="sans" font-style="normal" font-weight="700">
MainProgram</text>
<rect x="3.300" y="6.050" width="5.750" height="0.400" fill="#FFFFFF" stroke="none" stroke-width="0"/>
<rect x="3.300" y="6.050" width="5.750" height="0.400" fill="none" stroke="#000000" stroke-width="0.100" />
<rect x="3.300" y="6.450" width="5.750" height="0.400" fill="#FFFFFF" stroke="none" stroke-width="0"/>
<rect x="3.300" y="6.450" width="5.750" height="0.400" fill="none" stroke="#000000" stroke-width="0.100" />
<rect x="14.800" y="6.850" width="8.350" height="1.400" fill="#FFFFFF" stroke="none" stroke-width="0"/>
<rect x="14.800" y="6.850" width="8.350" height="1.400" fill="none" stroke="#000000" stroke-width="0.100" />
<text x="18.975" y="7.850"  fill="#000000" text-anchor="middle" font-size="1.00" font-family="sans" font-style="normal" font-weight="700">
UpdateIndexThread</text>
<rect x="14.800" y="8.250" width="8.350" height="0.400" fill="#FFFFFF" stroke="none" stroke-width="0"/>
<rect x="14.800" y="8.250" width="8.350" height="0.400" fill="none" stroke="#000000" stroke-width="0.100" />
<rect x="14.800" y="8.650" width="8.350" height="0.400" fill="#FFFFFF" stroke="none" stroke-width="0"/>
<rect x="14.800" y="8.650" width="8.350" height="0.400" fill="none" stroke="#000000" stroke-width="0.100" />
<rect x="8.300" y="11.150" width="8.250" height="1.400" fill="#FFFFFF" stroke="none" stroke-width="0"/>
<rect x="8.300" y="11.150" width="8.250" height="1.400" fill="none" stroke="#000000" stroke-width="0.100" />
<text x="12.425" y="12.150"  fill="#000000" text-anchor="middle" font-size="1.00" font-family="sans" font-style="normal" font-weight="700">
FileChangedThread</text>
<rect x="8.300" y="12.550" width="8.250" height="0.400" fill="#FFFFFF" stroke="none" stroke-width="0"/>
<rect x="8.300" y="12.550" width="8.250" height="0.400" fill="none" stroke="#000000" stroke-width="0.100" />
<rect x="8.300" y="12.950" width="8.250" height="0.400" fill="#FFFFFF" stroke="none" stroke-width="0"/>
<rect x="8.300" y="12.950" width="8.250" height="0.400" fill="none" stroke="#000000" stroke-width="0.100" />
<line x1="9.050" y1="5.350" x2="14.345" y2="7.376" stroke="#000000" stroke-width="0.100" />
<polygon fill="#000000" stroke="none" stroke-width="0.100" points="14.696,7.510 14.139,7.565 14.345,7.376 14.318,7.098 "/>
<polygon fill="none" stroke="#000000" stroke-width="0.100"  points="14.696,7.510 14.139,7.565 14.345,7.376 14.318,7.098 "/>
<path stroke="#000000" fill="none" stroke-width="0.100"  d ="M 6.175,6.850 A 4.266,4.266 0 0,0 7.865,11.632 "/>
<polygon fill="#000000" stroke="none" stroke-width="0.100" points="8.200,11.800 7.641,11.800 7.865,11.632 7.864,11.353 "/>
<polygon fill="none" stroke="#000000" stroke-width="0.100"  points="8.200,11.800 7.641,11.800 7.865,11.632 7.864,11.353 "/>
<text x="11.200" y="5.600"  fill="#000000" text-anchor="start" font-size="0.80" font-family="sans" font-style="normal" font-weight="400">
Spawns</text>
<text x="6.400" y="9.400"  fill="#000000" text-anchor="start" font-size="0.80" font-family="sans" font-style="normal" font-weight="400">
Spawns</text>
</svg>